<svg id="bgs" xmlns="http://www.w3.org/2000/svg" viewBox="0 0 1920 1009.33"><defs><style>.cls-1,.cls-3,.cls-4{fill:#f0f5f8;}.cls-1,.cls-2,.cls-3,.cls-5{stroke:#d7dee2;stroke-linejoin:round;stroke-width:2px;}.cls-1,.cls-2{stroke-linecap:round;}.cls-2,.cls-5{fill:none;}.cls-5{stroke-linecap:square;}</style></defs><title>Artboard 10</title><path class="cls-1" d="M1740.69,302.12h209.94a0,0,0,0,1,0,0V864.27a85.5,85.5,0,0,1-85.5,85.5h-38.94a85.5,85.5,0,0,1-85.5-85.5V302.12a0,0,0,0,1,0,0Z" transform="translate(3691.32 1251.88) rotate(-180)"/><path class="cls-1" d="M1538.23,372.78V314.5a18.57,18.57,0,0,1,18.57-18.57h57.77a18.56,18.56,0,0,1,18.57,18.57v58.28l75.39,79.75a18.55,18.55,0,0,1,5.08,12.75V949.77H1457.76V465.28a18.55,18.55,0,0,1,5.08-12.75Z"/><path class="cls-1" d="M1558.86,273.75h53.65a0,0,0,0,1,0,0v0a22.18,22.18,0,0,1-22.18,22.18H1581a22.18,22.18,0,0,1-22.18-22.18v0A0,0,0,0,1,1558.86,273.75Z" transform="translate(3171.37 569.67) rotate(-180)"/><path class="cls-1" d="M1826.57,286.33h38.17a0,0,0,0,1,0,0v0A15.78,15.78,0,0,1,1849,302.12h-6.61a15.78,15.78,0,0,1-15.78-15.78v0A0,0,0,0,1,1826.57,286.33Z" transform="translate(3691.32 588.45) rotate(-180)"/><path class="cls-2" d="M-71.79,754.34V603.25a32.5,32.5,0,0,1,32.5-32.5H43a32.5,32.5,0,0,0,32.5-32.49V523.1A32.49,32.49,0,0,1,108,490.6h0a32.5,32.5,0,0,1,32.49,32.5V754.34"/><path class="cls-2" d="M45.73,754.34V680.15a32.5,32.5,0,0,1,32.49-32.5H167a32.49,32.49,0,0,0,32.49-32.49v-156A32.49,32.49,0,0,1,232,426.7h58.49A32.5,32.5,0,0,1,323,459.19v69.32"/><line class="cls-1" x1="416.15" y1="697.75" x2="378.79" y2="697.75"/><rect class="cls-1" x="-113.49" y="754.34" width="295.69" height="112.64" rx="25.99" ry="25.99"/><rect class="cls-1" x="303.24" y="641.42" width="338.47" height="112.64" rx="25.99" ry="25.99" transform="translate(-225.27 1170.22) rotate(-90)"/><polygon class="cls-1" points="288.16 866.98 288.16 913.83 296.28 913.83 301.36 866.98 288.16 866.98"/><polygon class="cls-1" points="356.77 866.98 356.77 913.83 348.65 913.83 343.57 866.98 356.77 866.98"/><polygon class="cls-1" points="438.17 866.98 438.17 913.83 446.29 913.83 451.37 866.98 438.17 866.98"/><polygon class="cls-1" points="506.78 866.98 506.78 913.83 498.66 913.83 493.58 866.98 506.78 866.98"/><polygon class="cls-1" points="140.5 866.98 140.5 913.83 132.38 913.83 127.3 866.98 140.5 866.98"/><rect class="cls-1" x="153.23" y="641.42" width="338.47" height="112.64" rx="25.99" ry="25.99" transform="translate(-375.28 1020.21) rotate(-90)"/><line class="cls-3" y1="914.87" x2="1920" y2="914.87"/><rect class="cls-4" x="-59.25" y="905.44" width="2038.51" height="154.42"/><line class="cls-5" y1="905.44" x2="1920" y2="905.44"/></svg>