<svg xmlns="http://www.w3.org/2000/svg" viewBox="0 0 1920 190.87"><defs><style>.cls-1{fill:#fff;}</style></defs><title>Asset 2</title><g id="Layer_2" data-name="Layer 2"><g id="bgs"><path class="cls-1" d="M1867.52,74.43a156.77,156.77,0,0,0-141.72,89.68,215.47,215.47,0,0,0-302.34-5.89,128.7,128.7,0,0,0-141.06-54.78A149.24,149.24,0,0,0,1105.81,56,149.06,149.06,0,0,0,856.72,81.14a156.84,156.84,0,0,0-187.12,83,215.48,215.48,0,0,0-302.35-5.89,129,129,0,0,0-142.46-54.45A215.68,215.68,0,0,0,0,74.6V190.87H1920V83.44A156.45,156.45,0,0,0,1867.52,74.43Z"/></g></g></svg>