<svg xmlns="http://www.w3.org/2000/svg" xmlns:xlink="http://www.w3.org/1999/xlink" viewBox="0 0 1920 396.69"><defs><style>.cls-1{fill:none;}.cls-2{isolation:isolate;}.cls-3{clip-path:url(#clip-path);}.cls-4{clip-path:url(#clip-path-2);}.cls-5{fill:#1dbf94;}.cls-13,.cls-6,.cls-8{opacity:0.1;}.cls-13,.cls-15,.cls-6,.cls-8{mix-blend-mode:multiply;}.cls-6{fill:url(#linear-gradient);}.cls-14,.cls-7,.cls-9{mix-blend-mode:overlay;}.cls-7{fill:url(#linear-gradient-2);}.cls-8{fill:url(#linear-gradient-3);}.cls-9{fill:#fff;opacity:0.37;}.cls-10{clip-path:url(#clip-path-3);}.cls-11{clip-path:url(#clip-path-4);}.cls-12{clip-path:url(#clip-path-5);}.cls-13{fill:url(#linear-gradient-4);}.cls-14{fill:url(#linear-gradient-5);}.cls-15{opacity:0.32;fill:url(#linear-gradient-6);}</style><clipPath id="clip-path"><rect class="cls-1" x="-2304.7" width="1920" height="500"/></clipPath><clipPath id="clip-path-2"><rect class="cls-1" x="-2364.74" y="-42.78" width="3113.61" height="480.62" transform="translate(-20.89 -71.42) rotate(-5.13)"/></clipPath><linearGradient id="linear-gradient" x1="-2917.94" y1="664.68" x2="-2740.6" y2="-281.18" gradientTransform="matrix(1.43, -0.52, 0.45, 1.21, 3508.26, -815.69)" gradientUnits="userSpaceOnUse"><stop offset="0" stop-color="#65691f"/><stop offset="1" stop-color="#9e8926"/></linearGradient><linearGradient id="linear-gradient-2" x1="-511.86" y1="-343.57" x2="328.89" y2="1314.59" gradientTransform="translate(-9.55 -66.55) rotate(-5.13)" gradientUnits="userSpaceOnUse"><stop offset="0" stop-color="#fffbd0"/><stop offset="1" stop-color="#6a732b" stop-opacity="0"/></linearGradient><linearGradient id="linear-gradient-3" x1="-128.89" y1="744.2" x2="738" y2="744.2" gradientTransform="translate(-9.55 -66.55) rotate(-5.13)" xlink:href="#linear-gradient"/><clipPath id="clip-path-3"><rect class="cls-1" y="2" width="1920" height="336.81"/></clipPath><clipPath id="clip-path-4"><rect class="cls-1" y="2" width="1920" height="500"/></clipPath><clipPath id="clip-path-5"><rect class="cls-1" x="-60.04" y="-40.78" width="3113.61" height="480.62" transform="translate(-11.84 134.58) rotate(-5.13)"/></clipPath><linearGradient id="linear-gradient-4" x1="-1497.26" y1="1280.18" x2="-1319.91" y2="334.32" xlink:href="#linear-gradient"/><linearGradient id="linear-gradient-5" x1="1783.43" y1="-135.59" x2="2624.19" y2="1522.57" xlink:href="#linear-gradient-2"/><linearGradient id="linear-gradient-6" x1="-2371.25" y1="2258.15" x2="-2509.75" y2="1242.49" gradientTransform="matrix(2.09, -0.77, 0.34, 0.94, 5507.74, -3087.13)" xlink:href="#linear-gradient"/></defs><title>Artboard 7</title><g class="cls-2"><g id="bgs"><g class="cls-3"><g class="cls-4"><path class="cls-5" d="M-1145.47,1484.16l837.15-307.56S35.83,439.77,77.1,27.85C-428.56-56.54-1087.63,188.22-1355.29,269.69Z"/><path class="cls-6" d="M163.23,45.61C-317-69.88-1032.59,220.16-1253.54,340.65l774,1154.92,46.12-17c147.92-421,387.63-1035.26,602.1-1277.16C168,147.76,166.29,95.49,163.23,45.61Z"/><path class="cls-5" d="M721.15-181C469-147.09,38.52-30-359.15,111.19c-574.43,204-864.09,300.3-864.09,300.3l1651.5,677,403.56-36.22Z"/><path class="cls-7" d="M-1223.24,411.49-581.11,674.7C-67.23,279.75,430.65,55.09,732.19-58l-11-123C469-147.09,38.52-30-359.15,111.19-933.58,315.16-1223.24,411.49-1223.24,411.49Z"/><path class="cls-8" d="M752.22,165.2c-167,121.79-467.1,361-805.23,726l481.27,197.27,403.56-36.22Z"/><path class="cls-9" d="M-977.71,327.89l11.18,3.89S154.58-71.69,725-138.22L721.15-181C469-147.09,38.52-30-359.15,111.19Q-762.11,254.28-977.71,327.89Z"/><path class="cls-5" d="M-2375.14,151.43-2261,1423,840.12,1144.71,800.4,702.15C-345.71,107-1759.43,113.58-2375.14,151.43Z"/><path class="cls-9" d="M-2372.46,181.22c594.58-19.73,2243,.15,3175.09,545.79l-2.23-24.86C-345.71,107-1759.43,113.58-2375.14,151.43Z"/></g></g></g><g id="content"><g class="cls-10"><g class="cls-11"><g class="cls-12"><path class="cls-5" d="M1159.23,1486.16l837.14-307.56S2340.53,441.77,2381.8,29.85C1876.14-54.54,1217.07,190.22,949.41,271.69Z"/><path class="cls-13" d="M2467.92,47.61c-480.22-115.49-1195.81,174.55-1416.76,295l774,1154.92,46.12-17c147.92-421,387.63-1035.26,602.1-1277.16C2472.74,149.76,2471,97.49,2467.92,47.61Z"/><path class="cls-5" d="M3025.85-179C2773.7-145.09,2343.22-28,1945.54,113.19c-574.43,204-864.08,300.3-864.08,300.3l1651.49,677,403.57-36.22Z"/><path class="cls-14" d="M1081.46,413.49,1723.59,676.7C2237.47,281.75,2735.34,57.09,3036.89-56l-11-123C2773.7-145.09,2343.22-28,1945.54,113.19,1371.11,317.16,1081.46,413.49,1081.46,413.49Z"/><path class="cls-9" d="M1327,329.89l11.18,3.89s1121.11-403.47,1691.52-470L3025.85-179C2773.7-145.09,2343.22-28,1945.54,113.19Q1542.58,256.28,1327,329.89Z"/><path class="cls-15" d="M986.84,947.6c244.06-78.64,539.37-175,653.62-216.93C1497.89,530.1,1218.28,312.53,1020.3,172.36,897.36,204.79,796.54,234.39,732,254Z"/><path class="cls-5" d="M-70.44,153.43,43.67,1425l3101.15-278.29L3105.1,704.15C1959,109,545.27,115.58-70.44,153.43Z"/><path class="cls-9" d="M-67.76,183.22c594.58-19.73,2243,.15,3175.09,545.79l-2.23-24.86C1959,109,545.27,115.58-70.44,153.43Z"/></g></g></g><rect class="cls-1" y="2" width="1920" height="336.81"/><rect class="cls-5" y="332.98" width="1920" height="89.27"/></g></g></svg>