<svg id="bgs" xmlns="http://www.w3.org/2000/svg" viewBox="0 0 1050 560"><defs><style>.cls-1,.cls-6{fill:none;}.cls-1{stroke:#bde1f7;stroke-width:21px;}.cls-1,.cls-2,.cls-3,.cls-4,.cls-5,.cls-6{stroke-linecap:round;stroke-linejoin:round;}.cls-2{fill:#bde1f7;}.cls-2,.cls-3{stroke:#1ca4f7;}.cls-2,.cls-3,.cls-4,.cls-5{stroke-width:2px;}.cls-3{fill:#fff;}.cls-4{fill:#bdccd4;}.cls-4,.cls-5{stroke:#8e999f;}.cls-5{fill:#e9f0f4;}.cls-6{stroke:#fafcfd;stroke-width:10px;}</style></defs><title>Artboard 11</title><path class="cls-1" d="M285,202.6V47.21a28,28,0,0,1,28-28H914.63a28,28,0,0,1,28,28v106"/><path class="cls-2" d="M893.05,136.91h100a36.18,36.18,0,0,1,36.18,36.18v0a0,0,0,0,1,0,0H856.88a0,0,0,0,1,0,0v0A36.18,36.18,0,0,1,893.05,136.91Z"/><rect class="cls-2" x="851.56" y="191.17" width="183.01" height="187"/><rect class="cls-2" x="851.56" y="387.21" width="183.01" height="70.22"/><path class="cls-2" d="M851.56,466.48h183a0,0,0,0,1,0,0V532.7a4,4,0,0,1-4,4h-175a4,4,0,0,1-4-4V466.48A0,0,0,0,1,851.56,466.48Z"/><path class="cls-3" d="M856.35,173.08h173.43a6.38,6.38,0,0,1,6.38,6.38v2.66a0,0,0,0,1,0,0H850a0,0,0,0,1,0,0v-2.66A6.38,6.38,0,0,1,856.35,173.08Z"/><rect class="cls-3" x="846.24" y="182.13" width="193.65" height="9.04" rx="3.19" ry="3.19"/><rect class="cls-3" x="846.24" y="378.17" width="193.65" height="9.04" rx="3.19" ry="3.19"/><rect class="cls-3" x="846.24" y="457.44" width="193.65" height="9.04" rx="3.19" ry="3.19"/><path class="cls-3" d="M943.05,242.29c-.46.67-18.83,27.66-18,48.42.85,22.77,35.27,22.77,36.13,0,.77-20.76-17.6-47.75-18.06-48.42Z"/><path class="cls-1" d="M148.67,202.6V87.21a28,28,0,0,1,28-28H761.31a28,28,0,0,1,28,28v36"/><path class="cls-4" d="M329.33,503.08a36.62,36.62,0,1,1-73.24,0"/><path class="cls-4" d="M214.12,503.08a36.63,36.63,0,0,1-73.25,0"/><path class="cls-4" d="M343.85,375.34V289.87a69.22,69.22,0,0,1,69.23-69.23H79.35a69.22,69.22,0,0,0-69.23,69.23v85.47a69.22,69.22,0,0,0,69.23,69.23H413.08A69.22,69.22,0,0,1,343.85,375.34Z"/><path class="cls-4" d="M416.77,220.64h2.8a69.23,69.23,0,0,1,69.24,69.23v85.47a69.23,69.23,0,0,1-69.24,69.23h-6.49a69.22,69.22,0,0,1-69.23-69.23V289.87a69.22,69.22,0,0,1,69.23-69.23Z"/><rect class="cls-5" x="74.3" y="444.57" width="356.09" height="21.64"/><path class="cls-5" d="M74.3,466.21H430.39a0,0,0,0,1,0,0v19.56a17.31,17.31,0,0,1-17.31,17.31H91.61A17.31,17.31,0,0,1,74.3,485.77V466.21A0,0,0,0,1,74.3,466.21Z"/><path class="cls-4" d="M570.22,503.08a36.63,36.63,0,0,1-73.25,0"/><path class="cls-5" d="M447.7,267.78H501a17.3,17.3,0,0,1,13.57,6.57l69,87.16a17.31,17.31,0,0,1,3.74,10.74V485.77A17.31,17.31,0,0,1,570,503.08H447.7a17.31,17.31,0,0,1-17.31-17.31V285.09A17.31,17.31,0,0,1,447.7,267.78Z"/><circle class="cls-4" cx="500.71" cy="503.08" r="45.71"/><path class="cls-5" d="M548.8,358a7.71,7.71,0,0,1-6,12.49H457a7.71,7.71,0,0,1-7.71-7.71V296.6a7.71,7.71,0,0,1,7.71-7.7"/><circle class="cls-5" cx="500.71" cy="503.08" r="23.8"/><circle class="cls-4" cx="259.82" cy="503.08" r="45.71"/><circle class="cls-5" cx="259.82" cy="503.08" r="23.8"/><circle class="cls-4" cx="144.61" cy="503.08" r="45.71"/><circle class="cls-5" cx="144.61" cy="503.08" r="23.8"/><rect class="cls-5" x="65.57" y="451.87" width="17.47" height="31.02" rx="5.7" ry="5.7"/><path class="cls-5" d="M567.79,479.28h18.39a8.65,8.65,0,0,1,8.65,8.65v2.16a13,13,0,0,1-13,13H559.13a0,0,0,0,1,0,0V487.94a8.65,8.65,0,0,1,8.65-8.65Z"/><path class="cls-5" d="M452.39,390.57H469a9.47,9.47,0,0,1,9.46,9.47"/><rect class="cls-5" x="575.9" y="447.1" width="11.36" height="32.18"/><path class="cls-4" d="M115.5,202.6h66.35a13,13,0,0,1,13,13v5a0,0,0,0,1,0,0H102.51a0,0,0,0,1,0,0v-5A13,13,0,0,1,115.5,202.6Z"/><path class="cls-4" d="M250,202.6h66.35a13,13,0,0,1,13,13v5a0,0,0,0,1,0,0H237a0,0,0,0,1,0,0v-5A13,13,0,0,1,250,202.6Z"/><polyline class="cls-6" points="97.59 314.08 97.59 351.13 117 351.13"/><line class="cls-6" x1="176.84" y1="314.08" x2="176.84" y2="351.13"/><polyline class="cls-6" points="156.63 351.13 137.22 351.13 137.22 314.08 156.63 314.08"/><line class="cls-6" x1="137.22" y1="332.6" x2="156.63" y2="332.6"/><polyline class="cls-6" points="256.09 351.13 236.68 351.13 236.68 314.08 256.09 314.08"/><line class="cls-6" x1="236.68" y1="332.6" x2="256.09" y2="332.6"/><line class="cls-6" x1="206.76" y1="314.08" x2="206.76" y2="351.13"/><line class="cls-6" x1="197.05" y1="314.08" x2="216.47" y2="314.08"/><path class="cls-2" d="M736.07,123.21H842.54A38.51,38.51,0,0,1,881,161.72v0a0,0,0,0,1,0,0H697.56a0,0,0,0,1,0,0v0a38.51,38.51,0,0,1,38.51-38.51Z"/><rect class="cls-2" x="691.9" y="180.97" width="194.81" height="199.06"/><rect class="cls-2" x="691.9" y="389.66" width="194.81" height="74.75"/><path class="cls-2" d="M691.9,474H886.71a0,0,0,0,1,0,0v70.75a4,4,0,0,1-4,4H695.9a4,4,0,0,1-4-4V474A0,0,0,0,1,691.9,474Z"/><path class="cls-3" d="M697,161.72H881.61a6.8,6.8,0,0,1,6.8,6.8v2.83a0,0,0,0,1,0,0H690.2a0,0,0,0,1,0,0v-2.83A6.8,6.8,0,0,1,697,161.72Z"/><rect class="cls-3" x="686.24" y="171.35" width="206.13" height="9.63" rx="3.4" ry="3.4"/><rect class="cls-3" x="686.24" y="380.03" width="206.13" height="9.63" rx="3.4" ry="3.4"/><rect class="cls-3" x="686.24" y="464.41" width="206.13" height="9.63" rx="3.4" ry="3.4"/><path class="cls-3" d="M789.3,235.38c-.46.68-20.06,29.46-19.22,51.57.91,24.23,37.54,24.23,38.45,0,.84-22.11-18.76-50.89-19.22-51.57Z"/><rect class="cls-5" x="568.33" y="400.04" width="26.5" height="47.06" rx="8.65" ry="8.65"/></svg>