<svg id="Layer_1" data-name="Layer 1" xmlns="http://www.w3.org/2000/svg" viewBox="0 0 60 60"><defs><style>.cls-1{fill:#1dbf94;}.cls-1,.cls-2{stroke:#515c6b;stroke-linecap:round;stroke-linejoin:round;stroke-width:2px;}.cls-2{fill:none;}</style></defs><title>Artboard 15</title><path class="cls-1" d="M29,30.11H58.9a0,0,0,0,1,0,0V55A3.88,3.88,0,0,1,55,58.83H32.92A3.88,3.88,0,0,1,29,55V30.11A0,0,0,0,1,29,30.11Z"/><path class="cls-2" d="M24.79,58.83H5A3.87,3.87,0,0,1,1.1,55V12.52H38v5.79"/><path class="cls-2" d="M29,19.35V10.66a9.49,9.49,0,0,0-9.5-9.49h0A9.5,9.5,0,0,0,10,10.66v8.69"/><path class="cls-2" d="M50.47,35.2V27.32A6.5,6.5,0,0,0,44,20.81h0a6.5,6.5,0,0,0-6.5,6.51V35.2"/></svg>