<svg id="Layer_1" data-name="Layer 1" xmlns="http://www.w3.org/2000/svg" viewBox="0 0 60 60"><defs><style>.cls-1{fill:none;stroke-width:2.05px;}.cls-1,.cls-2{stroke:#515c6b;stroke-linecap:round;stroke-linejoin:round;}.cls-2{fill:#1dbf94;stroke-width:2px;}</style></defs><title>Artboard 14</title><path class="cls-1" d="M46.23,58.65h2.33a2,2,0,0,0,2-1.82L52.1,40h2.64a2,2,0,0,0,2-2.39L53.55,21.81a2,2,0,0,0-2-1.61H39.94a2.06,2.06,0,0,0-1,.3l-9.75,6v4.82l9-3.06a1,1,0,0,1,1.32.85L41.9,56.84a2,2,0,0,0,2,1.81h2.34"/><line class="cls-2" x1="49.61" y1="27.54" x2="52.1" y2="40.04"/><path class="cls-1" d="M12.05,58.65H9.72a2,2,0,0,1-2-1.82L6.18,40H3.54a2,2,0,0,1-2-2.39L4.73,21.81a2,2,0,0,1,2-1.61H18.34a2.06,2.06,0,0,1,1.05.3l9.75,6v4.82l-9-3.06a1,1,0,0,0-1.32.85L16.38,56.84a2,2,0,0,1-2,1.81H12.05"/><rect class="cls-2" x="46.15" y="37.44" width="12.31" height="10.31"/><circle class="cls-1" cx="45.26" cy="8.4" r="7.04"/><circle class="cls-1" cx="13.02" cy="8.4" r="7.04"/><line class="cls-2" x1="8.67" y1="27.54" x2="6.18" y2="40.04"/></svg>