<svg id="Layer_1" data-name="Layer 1" xmlns="http://www.w3.org/2000/svg" viewBox="0 0 60 60"><defs><style>.cls-1{fill:#f0f5f8;}.cls-1,.cls-2{stroke:#515c6b;stroke-linecap:round;stroke-linejoin:round;stroke-width:2px;}.cls-2{fill:#1dbf94;}</style></defs><title>Artboard 2 copy</title><path class="cls-1" d="M23.92,20.12h24.2a0,0,0,0,1,0,0V58.8a0,0,0,0,1,0,0H27.92a4,4,0,0,1-4-4V20.12A0,0,0,0,1,23.92,20.12Z"/><path class="cls-1" d="M48.12,20.12H58.67a0,0,0,0,1,0,0V54.8a4,4,0,0,1-4,4H48.12a0,0,0,0,1,0,0V20.12A0,0,0,0,1,48.12,20.12Z"/><polygon class="cls-1" points="53.39 7.09 48.12 20.12 58.67 20.12 53.39 7.09"/><polygon class="cls-1" points="29.19 7.09 23.92 20.12 48.12 20.12 53.39 7.09 29.19 7.09"/><path class="cls-1" d="M31.19,1.2h20.2a2,2,0,0,1,2,2V7.09a0,0,0,0,1,0,0H29.19a0,0,0,0,1,0,0V3.2A2,2,0,0,1,31.19,1.2Z"/><path class="cls-2" d="M24,38s11.61-7.18,20.57,3.13,14.12,4,14.12,4V54.8a4,4,0,0,1-4,4H28a4,4,0,0,1-4-4Z"/><line class="cls-2" x1="48.12" y1="42.7" x2="48.12" y2="58.8"/><path class="cls-1" d="M2.08,20.12h24.2a0,0,0,0,1,0,0V58.8a0,0,0,0,1,0,0H6.08a4,4,0,0,1-4-4V20.12A0,0,0,0,1,2.08,20.12Z"/><path class="cls-1" d="M26.28,20.12H36.83a0,0,0,0,1,0,0V54.8a4,4,0,0,1-4,4H26.28a0,0,0,0,1,0,0V20.12A0,0,0,0,1,26.28,20.12Z"/><polygon class="cls-1" points="31.55 7.09 26.28 20.12 36.83 20.12 31.55 7.09"/><polygon class="cls-1" points="7.35 7.09 2.08 20.12 26.28 20.12 31.55 7.09 7.35 7.09"/><path class="cls-1" d="M9.35,1.2h20.2a2,2,0,0,1,2,2V7.09a0,0,0,0,1,0,0H7.35a0,0,0,0,1,0,0V3.2A2,2,0,0,1,9.35,1.2Z"/><path class="cls-2" d="M2.12,38s11.61-7.18,20.57,3.13,14.12,4,14.12,4V54.8a4,4,0,0,1-4,4H6.12a4,4,0,0,1-4-4Z"/><line class="cls-2" x1="26.28" y1="42.7" x2="26.28" y2="58.8"/><ellipse class="cls-1" cx="16.65" cy="13.78" rx="3.31" ry="2.72" transform="translate(-4.87 15.81) rotate(-45)"/></svg>