<svg id="Layer_1" data-name="Layer 1" xmlns="http://www.w3.org/2000/svg" viewBox="0 0 60 60"><defs><style>.cls-1{fill:none;}.cls-1,.cls-2{stroke:#515c6b;stroke-linecap:round;stroke-linejoin:round;stroke-width:2px;}.cls-2{fill:#1dbf94;}</style></defs><title>Artboard 17</title><path class="cls-1" d="M58.75,54.39V47.05a2.17,2.17,0,0,0-1-1.86l-18-9a2.19,2.19,0,0,1-1-1.86V30.22a4.88,4.88,0,0,1,1.43-3.44h0a4.86,4.86,0,0,0,1.42-3.43V12.89A11.52,11.52,0,0,0,30,1.37h0"/><path class="cls-1" d="M1.25,54.39V47.05a2.17,2.17,0,0,1,1-1.86l18-9a2.19,2.19,0,0,0,1-1.86V30.22a4.88,4.88,0,0,0-1.43-3.44h0a4.86,4.86,0,0,1-1.42-3.43V12.89A11.52,11.52,0,0,1,30,1.37h0"/><polyline class="cls-1" points="24.48 38.65 27.47 41.44 30 41.44"/><polyline class="cls-1" points="35.52 38.65 32.53 41.44 30 41.44"/><polygon class="cls-2" points="32.53 41.44 34.57 54.29 30 58.63 25.43 54.29 27.47 41.44 32.53 41.44"/></svg>