<svg id="Layer_1" data-name="Layer 1" xmlns="http://www.w3.org/2000/svg" viewBox="0 0 60 60"><defs><style>.cls-1{fill:none;}.cls-1,.cls-2{stroke:#515c6b;stroke-linecap:round;stroke-linejoin:round;stroke-width:2px;}.cls-2{fill:#1dbf94;}</style></defs><title>Artboard 1 copy</title><path class="cls-1" d="M15.62,41.41H6.26a4.47,4.47,0,0,1-4.47-4.47V1.45h38V9"/><path class="cls-1" d="M6.54,41.41A4.47,4.47,0,0,0,11,36.94V25.54"/><path class="cls-1" d="M11,25.54V14.13a4.47,4.47,0,0,1,4.47-4.47h4.75"/><path class="cls-2" d="M58.21,55.82l-3,3-5.35-5.35-5.3,5.3-5.35-5.3-5.3,5.3-5.3-5.3-5.35,5.35-3-3V9.66H53.74a4.47,4.47,0,0,1,4.47,4.47V55.82Z"/><line class="cls-1" x1="26.79" y1="19.02" x2="51.64" y2="19.02"/><line class="cls-1" x1="26.79" y1="32.05" x2="51.64" y2="32.05"/><line class="cls-1" x1="34.47" y1="38.57" x2="51.64" y2="38.57"/><line class="cls-1" x1="26.79" y1="25.54" x2="43.96" y2="25.54"/><line class="cls-1" x1="26.79" y1="38.57" x2="29.86" y2="38.57"/><line class="cls-1" x1="26.79" y1="45.08" x2="29.86" y2="45.08"/><line class="cls-1" x1="34.47" y1="45.08" x2="51.64" y2="45.08"/></svg>