<svg id="Layer_1" data-name="Layer 1" xmlns="http://www.w3.org/2000/svg" viewBox="0 0 60 60"><defs><style>.cls-1{fill:#1dbf94;}.cls-1,.cls-2,.cls-3{stroke:#515c6b;stroke-linecap:round;stroke-linejoin:round;stroke-width:2px;}.cls-2{fill:#e9f0f4;}.cls-3{fill:none;}</style></defs><title>Artboard 16</title><path class="cls-1" d="M26.8,15.73v3a1.5,1.5,0,0,0,1.5,1.5h2.37a12.44,12.44,0,0,0,1.43,3.44l-1.68,1.68a1.51,1.51,0,0,0,0,2.12l2.12,2.12a1.51,1.51,0,0,0,2.12,0l1.68-1.68a12.44,12.44,0,0,0,3.44,1.43V31.7a1.5,1.5,0,0,0,1.5,1.5h3a1.5,1.5,0,0,0,1.5-1.5V29.33a12.64,12.64,0,0,0,3.45-1.43l1.67,1.68a1.51,1.51,0,0,0,2.12,0l2.12-2.12a1.49,1.49,0,0,0,0-2.12l-1.68-1.68a12.15,12.15,0,0,0,1.43-3.44h2.37a1.5,1.5,0,0,0,1.5-1.5v-3a1.5,1.5,0,0,0-1.5-1.5H54.88a12.33,12.33,0,0,0-1.43-3.45L55.13,9.1a1.48,1.48,0,0,0,0-2.11L53,4.87a1.49,1.49,0,0,0-2.12,0L49.22,6.55a12.33,12.33,0,0,0-3.45-1.43V2.75a1.5,1.5,0,0,0-1.5-1.5h-3a1.5,1.5,0,0,0-1.5,1.5V5.12a12.15,12.15,0,0,0-3.44,1.43L34.66,4.87a1.49,1.49,0,0,0-2.12,0L30.42,7a1.5,1.5,0,0,0,0,2.11l1.68,1.68a12.64,12.64,0,0,0-1.43,3.45H28.3A1.5,1.5,0,0,0,26.8,15.73Z"/><circle class="cls-2" cx="42.78" cy="17.22" r="6.16"/><path class="cls-3" d="M34.33,35.46a9.79,9.79,0,1,1-9.79-9.79"/><path class="cls-3" d="M21.73,16.86l-1.37-3.3a2.26,2.26,0,0,0-2.95-1.23l-4.17,1.73A2.26,2.26,0,0,0,12,17l1.37,3.31a18.54,18.54,0,0,0-4,4L6.1,22.93a2.26,2.26,0,0,0-2.95,1.22L1.42,28.32a2.26,2.26,0,0,0,1.22,2.95L6,32.64a19,19,0,0,0,0,5.63L2.64,39.64a2.26,2.26,0,0,0-1.22,3l1.73,4.17A2.26,2.26,0,0,0,6.1,48l3.31-1.37a18.54,18.54,0,0,0,4,4L12,53.9a2.26,2.26,0,0,0,1.22,3l4.17,1.73a2.26,2.26,0,0,0,2.95-1.22l1.37-3.31a19,19,0,0,0,5.63,0l1.37,3.31a2.26,2.26,0,0,0,2.95,1.22l4.17-1.73a2.26,2.26,0,0,0,1.22-3L35.7,50.59a18.54,18.54,0,0,0,4-4L43,48a2.26,2.26,0,0,0,2.95-1.22l1.73-4.17a2.26,2.26,0,0,0-1.22-3l-3.31-1.37"/></svg>