<svg id="Layer_1" data-name="Layer 1" xmlns="http://www.w3.org/2000/svg" viewBox="0 0 60 60"><defs><style>.cls-1{fill:none;}.cls-1,.cls-2{stroke:#515c6b;stroke-linecap:round;stroke-linejoin:round;stroke-width:2px;}.cls-2{fill:#1dbf94;}</style></defs><title>Artboard 14 copy</title><path class="cls-1" d="M17.92,45.09,4,40.69a2,2,0,0,0-2.2.66l-.18.23a2,2,0,0,0,.58,3l22.6,12.78a6.11,6.11,0,0,0,5.18.39l13.63-5.22a2,2,0,0,1,1.82.19l9.55,6,3.81-11.43-17.21-9a2,2,0,0,0-1.69-.08l-14.8,5.92a2,2,0,0,0-1,2.84l.33.62a2,2,0,0,0,2,1.07l10.09-.9"/><line class="cls-1" x1="52.13" y1="43.9" x2="48.53" y2="54.7"/><circle class="cls-2" cx="19.32" cy="19.29" r="18.1"/><path class="cls-1" d="M19.1,19.29H17.35a3.91,3.91,0,0,1-3.91-3.91h0a3.92,3.92,0,0,1,3.91-3.92h5.29"/><path class="cls-1" d="M19.1,19.29h1.75a3.92,3.92,0,0,1,3.91,3.92h0a3.91,3.91,0,0,1-3.91,3.91H15.56"/><line class="cls-1" x1="19.32" y1="8.1" x2="19.32" y2="11.46"/><line class="cls-1" x1="19.32" y1="27.12" x2="19.32" y2="30.49"/></svg>