<svg id="Layer_1" data-name="Layer 1" xmlns="http://www.w3.org/2000/svg" viewBox="0 0 60 60"><defs><style>.cls-1{fill:#1dbf94;}.cls-1,.cls-2{stroke:#515c6b;stroke-linecap:round;stroke-linejoin:round;stroke-width:2px;}.cls-2{fill:none;}</style></defs><title>Artboard 3 copy</title><line class="cls-1" x1="1.42" y1="1.4" x2="58.58" y2="1.4"/><line class="cls-1" x1="22.17" y1="42.94" x2="37.83" y2="42.94"/><line class="cls-1" x1="30" y1="42.94" x2="30" y2="58.6"/><line class="cls-1" x1="30" y1="48.82" x2="20.22" y2="58.6"/><line class="cls-1" x1="30" y1="48.82" x2="39.78" y2="58.6"/><path class="cls-2" d="M5,1.4H54.3a0,0,0,0,1,0,0V37.52a2,2,0,0,1-2,2H7a2,2,0,0,1-2-2V1.4A0,0,0,0,1,5,1.4Z"/><rect class="cls-1" x="25.39" y="8.08" width="8.56" height="24.71"/><rect class="cls-1" x="39.05" y="14.49" width="8.56" height="18.31"/><rect class="cls-1" x="11.73" y="21.34" width="8.56" height="11.46"/></svg>