<svg id="Layer_1" data-name="Layer 1" xmlns="http://www.w3.org/2000/svg" viewBox="0 0 40 40"><defs><style>.cls-1{fill:#fff;}</style></defs><title>Artboard 10</title><path id="Twitter" class="cls-1" d="M37.32,5.29a15,15,0,0,1-4.78,1.87,7.41,7.41,0,0,0-5.49-2.44,7.63,7.63,0,0,0-7.52,7.72,7.76,7.76,0,0,0,.2,1.75A21.17,21.17,0,0,1,4.22,6.13a7.85,7.85,0,0,0,2.33,10.3,7.45,7.45,0,0,1-3.41-1v.1a7.67,7.67,0,0,0,6,7.56,7.24,7.24,0,0,1-2,.27,7.33,7.33,0,0,1-1.41-.14,7.55,7.55,0,0,0,7,5.36,14.84,14.84,0,0,1-9.34,3.3,13.14,13.14,0,0,1-1.79-.11A20.9,20.9,0,0,0,13.2,35.28c13.84,0,21.4-11.75,21.4-22,0-.33,0-.67,0-1a15.32,15.32,0,0,0,3.75-4A14.5,14.5,0,0,1,34,9.55,7.64,7.64,0,0,0,37.32,5.29Z"/></svg>