<svg id="bgs" xmlns="http://www.w3.org/2000/svg" viewBox="0 0 2190 878"><defs><style>.cls-1,.cls-4{fill:#f0f5f8;}.cls-1,.cls-2,.cls-3,.cls-5{stroke:#d7dee2;stroke-linejoin:round;stroke-width:2px;}.cls-1,.cls-2{stroke-linecap:round;}.cls-2,.cls-3,.cls-5{fill:none;}.cls-5{stroke-linecap:square;}</style></defs><title>Artboard 1_1</title><path class="cls-1" d="M2112.75,767.9H1902.81V205.75a85.49,85.49,0,0,1,85.5-85.5h38.94a85.5,85.5,0,0,1,85.5,85.5h0V767.9Z"/><path class="cls-1" d="M1700.34,190.92V132.64a18.57,18.57,0,0,1,18.57-18.57h57.77a18.55,18.55,0,0,1,18.57,18.55v58.3l75.39,79.75a18.5,18.5,0,0,1,5.08,12.75V767.91H1619.88V283.42a18.54,18.54,0,0,1,5.07-12.75Z"/><path class="cls-1" d="M1774.63,114.06H1721a22.18,22.18,0,0,1,22.18-22.18h9.33a22.19,22.19,0,0,1,22.18,22.18h0Z"/><path class="cls-1" d="M2026.87,120.26H1988.7a15.77,15.77,0,0,1,15.74-15.79h6.61a15.78,15.78,0,0,1,15.78,15.78h0Z"/><path class="cls-2" d="M90.32,572.48V421.39a32.51,32.51,0,0,1,32.5-32.5h82.29a32.49,32.49,0,0,0,32.5-32.49V341.24a32.5,32.5,0,0,1,32.49-32.5h0a32.5,32.5,0,0,1,32.49,32.5V572.48"/><path class="cls-2" d="M207.84,572.48V498.29a32.5,32.5,0,0,1,32.49-32.5h88.78A32.49,32.49,0,0,0,361.6,433.3v-156a32.5,32.5,0,0,1,32.51-32.46H452.6a32.49,32.49,0,0,1,32.51,32.49h0v69.32"/><line class="cls-2" x1="578.26" y1="515.89" x2="540.91" y2="515.89"/><rect class="cls-1" x="48.62" y="572.48" width="295.69" height="112.64" rx="25.99" ry="25.99"/><rect class="cls-1" x="578.26" y="346.65" width="112.64" height="338.47" rx="25.99" ry="25.99"/><polygon class="cls-1" points="450.27 685.12 450.27 731.97 458.39 731.97 463.48 685.12 450.27 685.12"/><polygon class="cls-1" points="518.88 685.12 518.88 731.97 510.76 731.97 505.69 685.12 518.88 685.12"/><polygon class="cls-1" points="600.28 685.12 600.28 731.97 608.4 731.97 613.49 685.12 600.28 685.12"/><polygon class="cls-1" points="668.89 685.12 668.89 731.97 660.77 731.97 655.7 685.12 668.89 685.12"/><polygon class="cls-1" points="302.62 685.12 302.62 731.97 294.5 731.97 289.42 685.12 302.62 685.12"/><polygon class="cls-1" points="103.53 685.12 98.44 731.97 90.33 731.97 90.33 685.12 103.53 685.12"/><rect class="cls-1" x="428.25" y="346.65" width="112.64" height="338.47" rx="25.99" ry="25.99"/><line class="cls-3" x1="162.11" y1="733.01" x2="2082.11" y2="733.01"/><rect class="cls-4" x="-2.2" y="723.58" width="2199.64" height="180.6"/><line class="cls-5" x1="2.12" y1="723.58" x2="2193.11" y2="723.58"/></svg>