<?xml version="1.0" encoding="utf-8"?>
<!-- Generator: Adobe Illustrator 22.0.1, SVG Export Plug-In . SVG Version: 6.00 Build 0)  -->
<svg version="1.1" id="bgs" xmlns="http://www.w3.org/2000/svg" xmlns:xlink="http://www.w3.org/1999/xlink" x="0px" y="0px"
	 viewBox="0 0 1720.7 878" style="enable-background:new 0 0 1720.7 878;" xml:space="preserve">
<style type="text/css">
	.st0{fill:#F0F5F8;}
	.st1{fill:none;stroke:#D7DEE2;stroke-width:2;stroke-linecap:round;stroke-linejoin:round;stroke-miterlimit:10;}
</style>
<title>Artboard 1</title>
<rect x="-246.8" y="690.4" class="st0" width="2214.2" height="198.6"/>
<path class="st0" d="M1192.6,709.4h762.3v-19.1h-24.3V503h-53.5v-19.6l-27-18.6v-52.3h-15.9v41.4l-60-41.4l-102.4,70.7l1.6-1.1
	V280.5h-40.9v-9.9c0-4-0.3-8-0.8-11.9h13.4V246h-15.9c-0.7-2.7-1.6-5.3-2.5-7.9h18.4v-6.4h-20.9c-15.3-34.3-49.4-56.4-86.9-56.4
	h-2.1c-37.6,0-71.6,22.1-86.9,56.4h-20.9v6.3h18.4c-1,2.6-1.8,5.3-2.5,7.9h-15.9v12.7h13.4c-0.5,3.9-0.8,7.9-0.8,11.9l0,0v86.6
	h-12.6v12.7h12.6v11.5h-12.6v6.4h12.6v164h-25.4v-83h13.1V456h-13.1v-28.6h13.1V421h-13.1v-10.7h13.1v-12.7h-13.1v-93.7h13.1v-6.4
	h-13.1v-10.7h13.1v-12.7h-13.1v-95.7h13.1v-6.4h-13.1v-10.7h13.1v-12.7h-13.1v-6.2c0-21-17-38.1-38.1-38.1h3.2V47.7
	c5-1.8,7.6-7.2,5.8-12.2c-1.8-5-7.2-7.6-12.2-5.8s-7.6,7.2-5.8,12.2c1,2.7,3.1,4.9,5.8,5.8v56.7h-4.2c-21,0-38.1,17.1-38.1,38.1v6.2
	h-13.1v12.7h13.1v10.7h-13.1v6.4h13.1v52.4h-56.7v320.8H1263l-42.3,55.6v83.1h-28.1L1192.6,709.4z M1877.1,515.7h40.8v174.7H1907
	v-153h-29.9V515.7z M1894.3,550.1v140.3h-17.2V550.1L1894.3,550.1z M1660.7,293.2v182.3l-28.2-19.4v-68.3h12.6v-6.4h-12.6v-11.5
	h12.6v-12.6h-12.6v-64L1660.7,293.2z M1286.8,243.6h43.9v30.6h-13.1v12.7h13.1v10.7h-13.1v6.4h13.1v93.7h-13.1v12.7h13.1v10.7h-13.1
	v6.4h13.1V456h-13.1v12.7h13.1v83h-43.9V243.6z"/>
<path class="st0" d="M476.7,709.4H1239v-19.1h-36.5V544.8l-41.8-38.1v-54.5h-32.8c-4.3-16.6-7.8-38.4-10.7-63.4
	c-1.9-16.6-3.6-34.6-5-53.2c-1-12.6-1.8-25.6-2.6-38.8c-1-17.6-1.9-35.6-2.6-53.2c-0.6-15.3-1.1-30.4-1.5-45
	c-0.5-18.7-0.9-36.7-1.2-53.2c-0.4-22.3-0.6-41.9-0.6-57.2h16.8V75.5h-16.8V62.8H968v12.7h-16.9v12.7h16.8
	c-0.1,15.3-0.3,34.9-0.6,57.2c-0.3,16.5-0.7,34.4-1.2,53.2c-0.4,14.6-1,29.7-1.5,45c-0.7,17.7-1.6,35.6-2.6,53.2
	c-0.8,13.1-1.6,26.1-2.6,38.8c-0.8,10.7-1.7,21.1-2.7,31.3V351h-68.1v-12.7H901v-12.7h-12.4V255H901v-12.7h-12.9
	c-3-22-21.8-38.4-44-38.4h-79.4c-22.2,0-41,16.4-44,38.4h-12.9V255h12.4v32.5h-47.5l-0.9-32.6c-0.7-21.7-1.3-43.3-1.9-65.1
	c-0.3-12.3-0.7-24.6-1-36.8c-0.6-21.7-1.3-43.4-1.9-65.1c-0.3-9.5-0.6-19-0.8-28.5h-27.3c-0.2,9.5-0.6,19-0.8,28.5
	c-0.7,21.7-1.3,43.4-1.9,65.1c-0.3,12.3-0.7,24.6-1,36.8c-0.7,21.7-1.3,43.4-1.9,65.1l-1,32.6h-30.5v177.1h-70.9v103l0,0l-15.9,15.9
	v106.9h-38.1V709.4z M955,382.8c-0.2,2-0.4,4-0.7,6c-2.9,25-6.4,46.8-10.7,63.4h-55.1v-17.7H901v-12.7h-12.4v-39L955,382.8z
	 M543.4,477.3h58.2v42.6h-23.3l-34.9,34.9L543.4,477.3z"/>
<path class="st0" d="M-234.2,708h762.3v-19.1h-28.8V490.6L415,407.3v208.8h-10.3V407.3h-25.4v-27.8h-58.8v27.8h-28.1v-27.8h-23
	v-69.1h74.1v68.3h12.7v-81H72.7v5c-0.1-8,0-15.5,0.2-22.4l0,0c0.3-10.4,0.8-19.5,1.4-27h17v-12.7H75.5c1.1-9.9,2.1-15.1,2.1-15.1
	H-57.9c0,0,1,5.2,2.1,15.1h-15.8v12.6h17c0.6,7.6,1.1,16.6,1.4,27l0,0c0.4,13.6,0.3,29.5-0.5,47.6l0,0c-0.7,14.5-1.9,30.5-3.8,47.6
	l0,0c-0.1,1.3-0.3,2.6-0.4,4c-0.5,4.1-1,8.1-1.5,12c-0.1,0.3-0.1,0.6-0.1,0.9c-1.6,12-3.4,23.3-5.4,34l0,0
	c-3,16.3-6.2,30.9-9.5,43.7l0,0c-1.3,4.9-2.5,9.6-3.7,13.9c0,0.1-0.1,0.3-0.1,0.4c-0.4,1.3-0.8,2.6-1.1,3.9
	c-1.9-12.2-3.8-25.4-5.6-39.1h7.7v-12.7h-9.4c-1.3-10-2.6-20.2-3.8-30.3h28.9c1.3-8.1,2.4-16.6,3.5-25.4h-35.3
	c-1.3-11.2-2.4-22.2-3.4-32.5h8.4v-12.7H-98c-1.5-16.7-2.6-31.3-3.1-42.5c-0.7-16.3-1-35.4-1-54h13.8v-12.8h-13.8
	c0.1-16.4,0.3-31.8,0.5-43.9h13.3v-12.7h-13c0.2-7.8,0.3-12.4,0.3-12.4h-36.8c0,0,0.1,4.7,0.3,12.4h-13v12.7h13.3
	c0.2,12.1,0.4,27.5,0.5,43.9h-13.7v12.7h13.8c0,18.6-0.3,37.7-1,54c-0.5,11.1-1.6,25.8-3.1,42.5h-9.6v12.7h8.4
	c-0.6,5.7-1.2,11.6-1.8,17.6c-10.8,1.7-19.8,7.4-24.7,14.9h-38.8v192.5h-6.4v115.7h-20.4V708z M170,310.4v68.3h12.7v-68.3h74.1v69.1
	h-23v27.8h-28.1v-27.8h-58.8v27.8h-32.8v124.7c0-0.1-0.1-0.1-0.1-0.2v-0.1c-0.1-0.2-0.2-0.4-0.3-0.6l-0.1-0.2
	c-0.1-0.3-0.3-0.7-0.5-1.1c0,0,0-0.1,0-0.1c-0.6-1.5-1.5-3.7-2.6-6.7c0,0,0-0.1,0-0.1c-1.5-3.9-3.4-9.1-5.5-15.4
	c-0.1-0.2-0.1-0.4-0.2-0.6c-0.5-1.4-1-2.9-1.5-4.4c0-0.2-0.1-0.4-0.2-0.5c-1.1-3.4-2.2-7.1-3.4-11c-0.1-0.4-0.3-0.9-0.4-1.3
	c-0.4-1.5-0.8-2.9-1.3-4.4l-0.6-2.1c-0.4-1.3-0.7-2.6-1.1-3.9l-0.7-2.6c-0.3-1.3-0.7-2.6-1-3.9c-3.5-13.4-7-28.8-10.1-46.2l0,0
	c-1.9-10.4-3.7-21.4-5.3-33.1c-0.1-0.8-0.2-1.6-0.3-2.4c-0.5-3.7-1-7.5-1.4-11.4c-0.1-1.4-0.3-2.6-0.4-4l0,0
	c-1.9-17.2-3.1-33.1-3.8-47.6l0,0c-0.3-6.1-0.5-11.9-0.6-17.5L170,310.4z M-182,406.1h13.4c3.9,6.1,10.5,10.9,18.5,13.4
	c-0.7,5.7-1.4,11.3-2.1,16.9h-9.4v12.7h7.7c-4.5,33.1-9.2,63.3-13.2,82.8h-0.5v41.3h-14.4L-182,406.1z"/>
<line class="st1" x1="-246.8" y1="713.4" x2="1967.4" y2="713.4"/>
</svg>
