<svg id="bgs" xmlns="http://www.w3.org/2000/svg" viewBox="0 0 2190 878"><defs><style>.cls-1,.cls-6{fill:none;}.cls-1{stroke:#bde1f7;stroke-width:21px;}.cls-1,.cls-2,.cls-3,.cls-4,.cls-5,.cls-6{stroke-linecap:round;stroke-linejoin:round;}.cls-2{fill:#bde1f7;}.cls-2,.cls-3{stroke:#1ca4f7;}.cls-2,.cls-3,.cls-4,.cls-5{stroke-width:2px;}.cls-3{fill:#fff;}.cls-4{fill:#bdccd4;}.cls-4,.cls-5{stroke:#8e999f;}.cls-5{fill:#e9f0f4;}.cls-6{stroke:#fafcfd;stroke-width:10px;}</style></defs><title>Artboard 2</title><path class="cls-1" d="M855,434.49V279.1a28,28,0,0,1,28-28h601.64a28,28,0,0,1,28,28v106"/><path class="cls-2" d="M1463,368.8h100A36.18,36.18,0,0,1,1599.22,405H1426.88A36.18,36.18,0,0,1,1463,368.8Z"/><rect class="cls-2" x="1421.55" y="423.06" width="183.01" height="187"/><rect class="cls-2" x="1421.55" y="619.1" width="183.01" height="70.22"/><path class="cls-2" d="M1421.55,698.37h183v66.22a4,4,0,0,1-4,4h-175a4,4,0,0,1-4-4V698.37Z"/><path class="cls-3" d="M1426.34,405h173.44a6.38,6.38,0,0,1,6.38,6.38h0V414H1420v-2.66A6.38,6.38,0,0,1,1426.34,405Z"/><rect class="cls-3" x="1416.23" y="414.02" width="193.65" height="9.04" rx="3.19" ry="3.19"/><rect class="cls-3" x="1416.23" y="610.06" width="193.65" height="9.04" rx="3.19" ry="3.19"/><rect class="cls-3" x="1416.23" y="689.33" width="193.65" height="9.04" rx="3.19" ry="3.19"/><path class="cls-3" d="M1513,474.18c-.46.67-18.83,27.66-18,48.42.85,22.77,35.28,22.77,36.13,0,.78-20.76-17.59-47.75-18.06-48.42Z"/><path class="cls-1" d="M718.66,434.49V319.1a28,28,0,0,1,28-28H1331.3a28,28,0,0,1,28,28v36"/><path class="cls-4" d="M899.32,735a36.62,36.62,0,1,1-73.24,0v0"/><path class="cls-4" d="M784.11,735a36.63,36.63,0,0,1-73.25,0"/><path class="cls-4" d="M913.85,607.23V521.76a69.22,69.22,0,0,1,69.2-69.23H649.34a69.23,69.23,0,0,0-69.23,69.21v85.49a69.23,69.23,0,0,0,69.21,69.23H983.07a69.21,69.21,0,0,1-69.22-69.21Z"/><path class="cls-4" d="M986.76,452.53h2.8a69.22,69.22,0,0,1,69.24,69.22h0v85.47a69.23,69.23,0,0,1-69.23,69.23h-6.5a69.23,69.23,0,0,1-69.23-69.21V521.76a69.23,69.23,0,0,1,69.21-69.23h3.71Z"/><rect class="cls-5" x="644.29" y="676.46" width="356.09" height="21.64"/><path class="cls-5" d="M644.29,698.1h356.1v19.56A17.31,17.31,0,0,1,983.08,735H661.6a17.31,17.31,0,0,1-17.31-17.31V698.1Z"/><path class="cls-4" d="M1140.21,735a36.63,36.63,0,0,1-73.25,0"/><path class="cls-5" d="M1017.7,499.67H1071a17.33,17.33,0,0,1,13.58,6.57l69,87.16a17.3,17.3,0,0,1,3.73,10.74V717.66A17.3,17.3,0,0,1,1140,735H1017.7a17.3,17.3,0,0,1-17.31-17.31V517A17.3,17.3,0,0,1,1017.7,499.67Z"/><circle class="cls-4" cx="1070.7" cy="734.97" r="45.71"/><path class="cls-5" d="M1118.79,589.89a7.7,7.7,0,0,1-6,12.49H1027a7.71,7.71,0,0,1-7.7-7.71V528.49a7.7,7.7,0,0,1,7.7-7.7"/><circle class="cls-5" cx="1070.7" cy="734.97" r="23.8" transform="translate(-206.1 972.37) rotate(-45)"/><circle class="cls-4" cx="829.82" cy="734.97" r="45.71"/><circle class="cls-5" cx="829.81" cy="734.97" r="23.8" transform="translate(16.65 1488.32) rotate(-84.35)"/><circle class="cls-4" cx="714.6" cy="734.97" r="45.71" transform="translate(-69.17 1395.68) rotate(-85.93)"/><circle class="cls-5" cx="714.6" cy="734.97" r="23.8"/><rect class="cls-5" x="635.56" y="683.76" width="17.47" height="31.02" rx="5.7" ry="5.7"/><path class="cls-5" d="M1137.78,711.17h18.39a8.66,8.66,0,0,1,8.66,8.65h0V722a13,13,0,0,1-13,13h-22.7V719.83a8.65,8.65,0,0,1,8.65-8.65h0Z"/><path class="cls-5" d="M1022.39,622.46H1039a9.47,9.47,0,0,1,9.46,9.47"/><rect class="cls-5" x="1145.9" y="678.99" width="11.36" height="32.18"/><path class="cls-4" d="M685.49,434.49h66.36a13,13,0,0,1,13,13h0v5H672.5v-5A13,13,0,0,1,685.49,434.49Z"/><path class="cls-4" d="M820,434.49h66.36a13,13,0,0,1,13,13h0v5H807v-5a13,13,0,0,1,13-13Z"/><polyline class="cls-6" points="667.59 545.97 667.59 583.02 687 583.02"/><line class="cls-6" x1="746.83" y1="545.97" x2="746.83" y2="583.02"/><polyline class="cls-6" points="726.63 583.02 707.22 583.02 707.22 545.97 726.63 545.97"/><line class="cls-6" x1="707.21" y1="564.49" x2="726.63" y2="564.49"/><polyline class="cls-6" points="826.09 583.02 806.67 583.02 806.67 545.97 826.09 545.97"/><line class="cls-6" x1="806.67" y1="564.49" x2="826.08" y2="564.49"/><line class="cls-6" x1="776.75" y1="545.97" x2="776.75" y2="583.02"/><line class="cls-6" x1="767.04" y1="545.97" x2="786.46" y2="545.97"/><path class="cls-2" d="M1306.07,355.1h106.46A38.51,38.51,0,0,1,1451,393.61H1267.55a38.52,38.52,0,0,1,38.52-38.51Z"/><rect class="cls-2" x="1261.9" y="412.86" width="194.81" height="199.06"/><rect class="cls-2" x="1261.9" y="621.55" width="194.81" height="74.75"/><path class="cls-2" d="M1261.9,705.89h194.81v70.75a4,4,0,0,1-4,4H1265.9a4,4,0,0,1-4-4V705.89Z"/><path class="cls-3" d="M1267,393.61H1451.6a6.79,6.79,0,0,1,6.8,6.8v2.83H1260.2v-2.83A6.79,6.79,0,0,1,1267,393.61Z"/><rect class="cls-3" x="1256.23" y="403.24" width="206.13" height="9.63" rx="3.4" ry="3.4"/><rect class="cls-3" x="1256.23" y="611.92" width="206.13" height="9.63" rx="3.4" ry="3.4"/><rect class="cls-3" x="1256.23" y="696.3" width="206.13" height="9.63" rx="3.4" ry="3.4"/><path class="cls-3" d="M1359.29,467.27c-.46.68-20.06,29.46-19.21,51.57.9,24.23,37.53,24.23,38.45,0,.84-22.11-18.76-50.89-19.22-51.57Z"/><rect class="cls-5" x="1138.33" y="631.93" width="26.5" height="47.06" rx="8.65" ry="8.65"/></svg>