<svg id="bgs" xmlns="http://www.w3.org/2000/svg" viewBox="0 0 2190 878"><defs><style>.cls-1{fill:#f0f5f8;}</style></defs><title>Artboard 1</title><rect class="cls-1" x="-12.11" y="690.36" width="2214.21" height="198.63"/><path class="cls-1" d="M1427.27,709.42h762.29V690.36h-24.34V503h-53.47V483.39l-27-18.62V412.45h-15.88v41.37l-60-41.37-102.43,70.66,1.63-1.12V280.51h-40.88v-9.93a95.24,95.24,0,0,0-.83-11.92h13.39V246h-15.89c-.72-2.7-1.56-5.34-2.5-7.94h18.39v-6.35h-20.93a95.25,95.25,0,0,0-86.92-56.38h-2.13a95.26,95.26,0,0,0-86.92,56.39h-20.94V238h18.41a77.8,77.8,0,0,0-2.5,7.94h-15.91v12.7h13.4a94.94,94.94,0,0,0-.82,11.91h0v86.6h-12.58v12.71h12.58V381.4h-12.58v6.36h12.58v164h-25.41v-83h13.1V456h-13.1V427.39h13.1V421h-13.1V410.33h13.1v-12.7h-13.1v-93.7h13.1v-6.35h-13.1V286.86h13.1V274.18h-13.1V178.47h13.1v-6.36h-13.1V161.4h13.1V148.7h-13.1v-6.22A38.11,38.11,0,0,0,1611,104.37h3.17V47.65a9.53,9.53,0,1,0-6.35,0v56.7h-4.24a38.13,38.13,0,0,0-38.11,38.12v6.22h-13.1v12.7h13.1v10.72h-13.1v6.36h13.1v52.41h-56.65V551.67h-11.12l-42.34,55.59v83.1h-28.06Zm684.48-193.75h40.76V690.36h-10.86v-153h-29.9Zm17.2,34.41V690.36h-17.2V550.09Zm-233.59-256.9v182.3l-28.17-19.43V387.7h12.56v-6.35h-12.56V369.83h12.56V357.18h-12.56v-64Zm-373.86-49.6h43.94v30.6h-13.1v12.71h13.1v10.72h-13.1V304h13.1v93.69h-13.1v12.71h13.1v10.71h-13.1v6.35h13.1V456h-13.1v12.7h13.1v83H1521.5Z"/><path class="cls-1" d="M711.38,709.42h762.3V690.36h-36.53V544.79l-41.82-38.12V452.18h-32.82c-4.32-16.57-7.82-38.41-10.74-63.36-1.9-16.58-3.55-34.56-5-53.24-1-12.65-1.84-25.61-2.61-38.76-1-17.65-1.9-35.56-2.6-53.23-.57-15.31-1.08-30.37-1.53-45-.5-18.74-.88-36.66-1.2-53.17-.37-22.28-.55-41.87-.63-57.21h16.84V75.5H1338.2V62.82H1202.62V75.5h-16.9V88.18h16.85c-.08,15.34-.25,34.93-.63,57.21-.32,16.51-.7,34.43-1.2,53.17-.45,14.6-1,29.66-1.53,45-.7,17.67-1.59,35.58-2.6,53.23-.77,13.15-1.59,26.11-2.61,38.76-.8,10.71-1.7,21.15-2.66,31.25V351h-68.1V338.33h12.43v-12.7h-12.43V255h12.43v-12.7h-12.9a44.42,44.42,0,0,0-44-38.37H999.36a44.42,44.42,0,0,0-44,38.38H942.44V255h12.44v32.55H907.36l-.92-32.6q-1-32.49-1.91-65.05c-.32-12.25-.7-24.59-1-36.84q-.94-32.58-1.9-65.11c-.25-9.53-.58-19-.83-28.52H873.49c-.24,9.53-.56,19-.81,28.52q-1,32.58-1.92,65.11c-.3,12.25-.69,24.59-1,36.84q-1,32.51-1.9,65.05l-1,32.59H836.31V464.6H765.38v103h0L749.5,583.49V690.36H711.38Zm478.3-326.67c-.22,2-.43,4.05-.65,6-2.92,25-6.42,46.8-10.73,63.37h-55.06v-17.7h12.43V421.71h-12.43v-39Zm-411.6,94.54h58.23V519.9H813l-34.94,34.94Z"/><path class="cls-1" d="M.44,708H762.73V688.89H733.89V490.64l-84.18-83.38V616.09H639.44V407.26H614v-27.8H555.23v27.8H527.16v-27.8h-23V310.4h74.11v68.27H591v-81H307.34v5c-.07-8,0-15.54.2-22.43h0c.29-10.39.81-19.45,1.41-27H326v-12.7H310.15c1.1-9.86,2.09-15.08,2.09-15.08H176.74s1,5.22,2.09,15.08H163v12.64H180c.6,7.58,1.12,16.62,1.41,27h0c.36,13.62.32,29.53-.5,47.62h0c-.68,14.55-1.87,30.47-3.77,47.65h0c-.15,1.34-.26,2.62-.4,4q-.72,6.14-1.5,12c-.05.29-.08.57-.12.88-1.62,12-3.44,23.32-5.38,33.95h0c-3,16.29-6.24,30.91-9.48,43.67h0c-1.25,4.93-2.5,9.57-3.72,13.94a1.43,1.43,0,0,1-.11.39c-.38,1.34-.75,2.61-1.12,3.9-1.88-12.18-3.77-25.41-5.62-39.13h7.71V436.38h-9.39c-1.3-10-2.57-20.18-3.78-30.3h28.88c1.25-8.15,2.43-16.57,3.46-25.43H141.3c-1.25-11.23-2.39-22.17-3.4-32.54h8.38V335.4h-9.59c-1.51-16.66-2.61-31.32-3.11-42.47-.73-16.3-1-35.39-1-54h13.75V226.18H132.54c.05-16.42.26-31.83.48-43.94h13.26V169.58h-13c.17-7.78.3-12.45.3-12.45H96.78s.13,4.67.3,12.45h-13v12.7H97.34c.22,12.1.43,27.52.48,43.94H84.08v12.7H97.83c0,18.62-.32,37.71-1,54-.5,11.15-1.6,25.81-3.11,42.47H84.08V348.1h8.36c-.57,5.71-1.16,11.61-1.79,17.63-10.83,1.74-19.84,7.35-24.7,14.91H27.17V573.18H20.82V688.89H.44ZM404.62,310.4v68.27h12.7V310.4h74.12v69.06h-23v27.8h-28.1v-27.8H381.59v27.8H348.77V531.93a1.92,1.92,0,0,1-.1-.22v-.08c-.06-.16-.16-.37-.27-.64l-.07-.15c-.12-.3-.29-.68-.47-1.11a.19.19,0,0,0-.05-.13c-.63-1.51-1.53-3.74-2.65-6.67a.19.19,0,0,0-.05-.13c-1.49-3.91-3.36-9.07-5.46-15.39-.07-.18-.13-.37-.19-.56-.47-1.42-1-2.9-1.45-4.44a1.76,1.76,0,0,0-.17-.52q-1.62-5.08-3.37-11c-.12-.43-.25-.89-.39-1.32-.41-1.46-.84-2.93-1.27-4.44L332.2,483c-.35-1.28-.72-2.6-1.08-3.92l-.71-2.65c-.34-1.26-.68-2.58-1-3.88-3.45-13.36-7-28.81-10.14-46.21h0c-1.9-10.38-3.68-21.43-5.26-33.13-.1-.79-.21-1.58-.32-2.37-.49-3.72-1-7.49-1.41-11.35-.15-1.35-.27-2.63-.42-4h0c-1.89-17.18-3.09-33.09-3.76-47.65h0c-.29-6.1-.45-11.85-.57-17.45Zm-352,95.68H66c3.89,6.1,10.46,10.85,18.51,13.43q-1,8.48-2.14,16.87H73v12.7h7.7c-4.46,33.1-9.22,63.32-13.22,82.85h-.52v41.25H52.59Z"/></svg>