<svg xmlns="http://www.w3.org/2000/svg" viewBox="0 0 238.15 72.5"><defs><style>.cls-1{fill:#fff;}</style></defs><title>Asset 4</title><g id="Layer_2" data-name="Layer 2"><g id="content"><path class="cls-1" d="M98,39.19a6.59,6.59,0,0,1,2.43.44A7.57,7.57,0,0,1,102.63,41L103.86,42l.26-4.82-.37-.26a10.45,10.45,0,0,0-2.82-1.4,10.11,10.11,0,0,0-3.07-.47,10.25,10.25,0,0,0-3.79.69,9.18,9.18,0,0,0-3.14,2.05,9.33,9.33,0,0,0-2.1,3.13,9.88,9.88,0,0,0-.72,3.77,10,10,0,0,0,.72,3.79,9.22,9.22,0,0,0,5.22,5.15,11.09,11.09,0,0,0,6.91.26,8.71,8.71,0,0,0,2.63-1.29l.34-.24V47.13l-1.33,1.14a8.14,8.14,0,0,1-2.36,1.46,7,7,0,0,1-2.55.47A4.8,4.8,0,0,1,94,48.68a5.4,5.4,0,0,1-1.46-3.94,5.48,5.48,0,0,1,1.5-4A5.19,5.19,0,0,1,98,39.19Z"/><path class="cls-1" d="M138.63,45.79l-.47-.48-12-11.59V53.89h4.12V43.59l.26.27,12.26,11.76V35.47h-4.13Z"/><path class="cls-1" d="M151.7,42.61l-.32-.15c-1.54-.71-2.39-1.45-2.39-2.1a1.17,1.17,0,0,1,.38-.94,2.11,2.11,0,0,1,2.19-.12,2.75,2.75,0,0,1,.85.9l.39.62,3.41-1.76L156,38.4a4.61,4.61,0,0,0-2.09-2.49,7.09,7.09,0,0,0-3.51-.82,6,6,0,0,0-4.2,1.49,5.08,5.08,0,0,0-1.66,3.92,4.88,4.88,0,0,0,1.11,3.2,12.59,12.59,0,0,0,4,2.68l.49.23c.91.43,2,1.11,2,1.92a1.57,1.57,0,0,1-.47,1.23,1.93,1.93,0,0,1-1.39.46,2.83,2.83,0,0,1-1.65-.44,2.25,2.25,0,0,1-.83-1.28l-.25-.91-3.63,1.68.15.63a5.46,5.46,0,0,0,2.11,3.3,6.65,6.65,0,0,0,4,1.14,6.53,6.53,0,0,0,4.61-1.62,5.75,5.75,0,0,0,1.76-4.39,4.89,4.89,0,0,0-1.12-3.26A11,11,0,0,0,151.7,42.61Z"/><path class="cls-1" d="M121.71,37.88a9.69,9.69,0,0,0-3.17-2.08,10.28,10.28,0,0,0-7.5,0,9.78,9.78,0,0,0-3.18,2.08,9.65,9.65,0,0,0-2.13,10.54,9.34,9.34,0,0,0,2.13,3.11A9.85,9.85,0,0,0,111,53.61a10,10,0,0,0,7.49,0,10.17,10.17,0,0,0,3.18-2.08,9.36,9.36,0,0,0,2.87-6.82,9.49,9.49,0,0,0-.73-3.69A9.64,9.64,0,0,0,121.71,37.88Zm-1.58,6.83a5.36,5.36,0,0,1-.41,2.11,5.29,5.29,0,0,1-7,3A5.11,5.11,0,0,1,111,48.6a5.38,5.38,0,0,1-1.16-1.77,5.84,5.84,0,0,1,0-4.25A5.32,5.32,0,0,1,111,40.8a5.25,5.25,0,0,1,3.78-1.59,5.14,5.14,0,0,1,2,.41,5.22,5.22,0,0,1,1.71,1.19,5.43,5.43,0,0,1,1.16,1.78A5.48,5.48,0,0,1,120.13,44.71Z"/><path class="cls-1" d="M174.81,53.89h4.65l1.95-4.33H187l1.91,4.33h4.66l-9.39-20.18Zm10.54-8.21h-2.21l1.11-2.46Z"/><rect class="cls-1" x="157.98" y="35.47" width="4.33" height="18.42"/><path class="cls-1" d="M175,45.07a10.83,10.83,0,0,0-3.72-2.46l-.32-.15c-1.54-.71-2.38-1.45-2.38-2.1a1.17,1.17,0,0,1,.38-.94,1.75,1.75,0,0,1,1.21-.37,1.83,1.83,0,0,1,1,.25,2.73,2.73,0,0,1,.84.9l.4.62,3.41-1.76-.24-.66a4.58,4.58,0,0,0-2.09-2.49,7,7,0,0,0-3.51-.82,6,6,0,0,0-4.2,1.49,5.08,5.08,0,0,0-1.66,3.92,4.84,4.84,0,0,0,1.12,3.2,12.52,12.52,0,0,0,4,2.68,3.94,3.94,0,0,1,.44.21l0,0c.91.43,2,1.11,2,1.92a1.57,1.57,0,0,1-.47,1.23,1.9,1.9,0,0,1-1.38.46,2.81,2.81,0,0,1-1.65-.44,2.21,2.21,0,0,1-.83-1.28l-.26-.91-3.62,1.68.14.63a5.46,5.46,0,0,0,2.11,3.3,6.67,6.67,0,0,0,4,1.14,6.53,6.53,0,0,0,4.61-1.62,5.75,5.75,0,0,0,1.77-4.39A4.9,4.9,0,0,0,175,45.07Z"/><path class="cls-1" d="M206.89,45.79l-.47-.48-12-11.58V53.89h4.12V43.6l.26.26L211,55.63V35.47h-4.13Z"/><polygon class="cls-1" points="213.31 53.9 224.3 53.9 224.3 49.85 217.65 49.85 217.65 46.01 224.3 46.01 224.3 42.01 217.65 42.01 217.65 39.4 224.3 39.4 224.3 35.47 213.31 35.47 213.31 53.9"/><polygon class="cls-1" points="224.9 35.47 224.9 39.4 229.37 39.4 229.37 53.9 233.7 53.9 233.7 39.4 238.15 39.4 238.15 35.47 224.9 35.47"/><path class="cls-1" d="M90.57,26.35h0v4.29H89.41V20.28h1.14v1.25h0A2.7,2.7,0,0,1,93,20.12a2.62,2.62,0,0,1,2.14.95,4,4,0,0,1,.77,2.55,4.37,4.37,0,0,1-.87,2.85,2.87,2.87,0,0,1-2.37,1.07A2.37,2.37,0,0,1,90.57,26.35Zm0-2.86v1a2.13,2.13,0,0,0,.57,1.5,2,2,0,0,0,3.07-.18,3.64,3.64,0,0,0,.58-2.2,2.8,2.8,0,0,0-.55-1.85,1.79,1.79,0,0,0-1.48-.68,2,2,0,0,0-1.59.69A2.55,2.55,0,0,0,90.55,23.49Z"/><path class="cls-1" d="M100.72,27.54a3.32,3.32,0,0,1-2.52-1,3.7,3.7,0,0,1-.93-2.64,3.84,3.84,0,0,1,1-2.79,3.5,3.5,0,0,1,2.64-1,3.2,3.2,0,0,1,2.48,1,3.92,3.92,0,0,1,.89,2.71,3.81,3.81,0,0,1-1,2.72A3.37,3.37,0,0,1,100.72,27.54Zm.08-6.47a2.14,2.14,0,0,0-1.73.75,3,3,0,0,0-.64,2.05,2.89,2.89,0,0,0,.64,2,2.19,2.19,0,0,0,1.73.73,2.06,2.06,0,0,0,1.69-.72,3.05,3.05,0,0,0,.59-2,3.13,3.13,0,0,0-.59-2.05A2.06,2.06,0,0,0,100.8,21.07Z"/><path class="cls-1" d="M115,20.28l-2.13,7.1h-1.18l-1.46-5.08a3.78,3.78,0,0,1-.11-.66h0a3.07,3.07,0,0,1-.14.65l-1.59,5.09h-1.13l-2.15-7.1h1.19l1.47,5.34a3,3,0,0,1,.1.64h0a3.49,3.49,0,0,1,.13-.66l1.63-5.32h1l1.47,5.35a4.33,4.33,0,0,1,.1.64h.06a3.05,3.05,0,0,1,.12-.64l1.44-5.35Z"/><path class="cls-1" d="M122,24.11h-5a2.69,2.69,0,0,0,.63,1.83,2.21,2.21,0,0,0,1.68.65,3.51,3.51,0,0,0,2.2-.79v1.06a4,4,0,0,1-2.47.68,3,3,0,0,1-2.36-1,4,4,0,0,1-.86-2.72,3.86,3.86,0,0,1,.94-2.7,3,3,0,0,1,2.33-1,2.65,2.65,0,0,1,2.15.9,3.74,3.74,0,0,1,.77,2.5Zm-1.17-1a2.31,2.31,0,0,0-.47-1.53,1.64,1.64,0,0,0-1.3-.55,1.87,1.87,0,0,0-1.37.58,2.62,2.62,0,0,0-.69,1.5Z"/><path class="cls-1" d="M127.43,21.43a1.4,1.4,0,0,0-.86-.22,1.43,1.43,0,0,0-1.21.68,3.14,3.14,0,0,0-.49,1.87v3.62h-1.14v-7.1h1.14v1.47h0a2.49,2.49,0,0,1,.74-1.17,1.67,1.67,0,0,1,1.11-.42,1.71,1.71,0,0,1,.68.1Z"/><path class="cls-1" d="M134.37,24.11h-5a2.65,2.65,0,0,0,.64,1.83,2.18,2.18,0,0,0,1.67.65,3.49,3.49,0,0,0,2.2-.79v1.06a4,4,0,0,1-2.47.68,3,3,0,0,1-2.36-1,4,4,0,0,1-.86-2.72,3.86,3.86,0,0,1,.94-2.7,3,3,0,0,1,2.33-1,2.65,2.65,0,0,1,2.15.9,3.74,3.74,0,0,1,.77,2.5Zm-1.17-1a2.31,2.31,0,0,0-.47-1.53,1.64,1.64,0,0,0-1.3-.55,1.87,1.87,0,0,0-1.37.58,2.62,2.62,0,0,0-.69,1.5Z"/><path class="cls-1" d="M142.14,27.38H141V26.17h0a2.59,2.59,0,0,1-2.43,1.37,2.64,2.64,0,0,1-2.14-.95,3.91,3.91,0,0,1-.8-2.59,4.24,4.24,0,0,1,.89-2.82,2.9,2.9,0,0,1,2.36-1.06A2.26,2.26,0,0,1,141,21.27h0V16.88h1.14ZM141,24.17V23.12a2,2,0,0,0-.57-1.45,1.87,1.87,0,0,0-1.44-.6,2,2,0,0,0-1.63.77,3.3,3.3,0,0,0-.6,2.1,3,3,0,0,0,.57,1.94,1.9,1.9,0,0,0,1.54.71,1.93,1.93,0,0,0,1.54-.69A2.52,2.52,0,0,0,141,24.17Z"/><path class="cls-1" d="M149.49,26.35h0v1h-1.14V16.88h1.14v4.65h0a2.68,2.68,0,0,1,2.45-1.41,2.62,2.62,0,0,1,2.14.95,4,4,0,0,1,.77,2.55,4.37,4.37,0,0,1-.87,2.85,2.85,2.85,0,0,1-2.37,1.07A2.32,2.32,0,0,1,149.49,26.35Zm0-2.86v1A2.13,2.13,0,0,0,150,26a2,2,0,0,0,3.07-.18,3.64,3.64,0,0,0,.59-2.2,2.85,2.85,0,0,0-.55-1.85,1.82,1.82,0,0,0-1.48-.68,2,2,0,0,0-1.6.69A2.55,2.55,0,0,0,149.46,23.49Z"/><path class="cls-1" d="M162.31,20.28l-3.26,8.23c-.58,1.47-1.4,2.21-2.45,2.21a2.65,2.65,0,0,1-.75-.09v-1a2.22,2.22,0,0,0,.68.12,1.38,1.38,0,0,0,1.28-1l.57-1.35-2.77-7.08h1.26l1.92,5.46.15.54h0c0-.11.07-.28.14-.52l2-5.48Z"/><path class="cls-1" d="M20.91,4.12A30.06,30.06,0,0,0,9.63,44.32L1.38,53.45a5.38,5.38,0,1,0,8,7.22l7.08-7.85c.33.26.62.55.95.81l-3.7,9.68a5.36,5.36,0,1,0,10,3.85l3.23-8.43c.55.18,1.14.33,1.69.47l0,7.81a5.49,5.49,0,0,0,11,0v0l0-7.07,1.62-.22,2.86,7.4a5.36,5.36,0,0,0,10-3.85L51.28,56A30.06,30.06,0,0,0,20.91,4.12ZM36.1,42.52A12.43,12.43,0,1,1,48.53,30.09,12.42,12.42,0,0,1,36.1,42.52Z"/></g></g></svg>