<?xml version="1.0" encoding="utf-8"?>
<!-- Generator: Adobe Illustrator 22.0.1, SVG Export Plug-In . SVG Version: 6.00 Build 0)  -->
<svg version="1.1" id="Layer_1" xmlns="http://www.w3.org/2000/svg" xmlns:xlink="http://www.w3.org/1999/xlink" x="0px" y="0px"
	 viewBox="0 0 46 50" style="enable-background:new 0 0 46 50;" xml:space="preserve">
<style type="text/css">
	.st0{fill:#1DBF94;}
</style>
<title>Artboard 8</title>
<g id="menu">
	<path class="st0" d="M14.3,3.3C4.8,8.9,1.4,21,6.7,30.8L1,37c-1.4,1.5-1.4,3.8,0.1,5.2s3.8,1.4,5.2-0.1c0.1-0.1,0.1-0.1,0.2-0.2
		l4.8-5.3c0.2,0.2,0.4,0.4,0.6,0.6l-2.5,6.6c-0.7,1.9,0.2,4,2.1,4.7c1.9,0.7,4-0.2,4.7-2.1l0,0l2.2-5.7c0.4,0.1,0.8,0.2,1.1,0.3v5.3
		c0,2.1,1.7,3.7,3.7,3.7s3.7-1.7,3.7-3.7c0,0,0,0,0,0l0,0v-4.8l1.1-0.2l2,5c0.7,1.9,2.8,2.8,4.7,2.1c1.9-0.7,2.8-2.8,2.1-4.7
		L35,38.7c10-5.2,13.9-17.6,8.7-27.6s-17.6-14-27.6-8.7C15.5,2.6,14.9,3,14.3,3.3z M24.7,29.6c-4.7,0-8.5-3.8-8.5-8.4
		c0-4.7,3.8-8.5,8.4-8.5c4.7,0,8.5,3.8,8.5,8.4C33.1,25.7,29.4,29.6,24.7,29.6C24.7,29.6,24.7,29.6,24.7,29.6z"/>
</g>
</svg>
